<mxfile host="app.diagrams.net" agent="Mozilla/5.0 (Windows NT 10.0; Win64; x64) AppleWebKit/537.36 (KHTML, like Gecko) Chrome/126.0.0.0 Safari/537.36" version="24.7.4">
  <diagram name="PÃ¡gina-1" id="nE2qOdOcSx8qNVzde0AS">
    <mxGraphModel dx="1434" dy="738" grid="1" gridSize="10" guides="1" tooltips="1" connect="1" arrows="1" fold="1" page="1" pageScale="1" pageWidth="827" pageHeight="1169" math="0" shadow="0">
      <root>
        <mxCell id="0" />
        <mxCell id="1" parent="0" />
        <mxCell id="xxQZAiOc9twCJSWwrNgG-5" value="" style="whiteSpace=wrap;html=1;aspect=fixed;" vertex="1" parent="1">
          <mxGeometry x="60" y="30" width="930" height="930" as="geometry" />
        </mxCell>
        <mxCell id="xxQZAiOc9twCJSWwrNgG-14" value="" style="rounded=1;whiteSpace=wrap;html=1;align=center;" vertex="1" parent="1">
          <mxGeometry x="340" y="370" width="350" height="350" as="geometry" />
        </mxCell>
        <mxCell id="xxQZAiOc9twCJSWwrNgG-6" value="" style="rounded=0;whiteSpace=wrap;html=1;" vertex="1" parent="1">
          <mxGeometry x="100" y="410" width="120" height="250" as="geometry" />
        </mxCell>
        <mxCell id="xxQZAiOc9twCJSWwrNgG-25" style="edgeStyle=orthogonalEdgeStyle;rounded=0;orthogonalLoop=1;jettySize=auto;html=1;exitX=1;exitY=0.5;exitDx=0;exitDy=0;orthogonal=0;ignoreEdge=0;noJump=0;enumerate=0;comic=0;movable=1;flowAnimation=1;" edge="1" parent="1" source="xxQZAiOc9twCJSWwrNgG-7" target="xxQZAiOc9twCJSWwrNgG-15">
          <mxGeometry relative="1" as="geometry" />
        </mxCell>
        <mxCell id="xxQZAiOc9twCJSWwrNgG-7" value="Frontend" style="rounded=1;whiteSpace=wrap;html=1;" vertex="1" parent="1">
          <mxGeometry x="110" y="440" width="100" height="50" as="geometry" />
        </mxCell>
        <mxCell id="xxQZAiOc9twCJSWwrNgG-8" value="Mobile" style="rounded=1;whiteSpace=wrap;html=1;" vertex="1" parent="1">
          <mxGeometry x="110" y="585" width="100" height="50" as="geometry" />
        </mxCell>
        <mxCell id="xxQZAiOc9twCJSWwrNgG-12" value="MySql" style="shape=cylinder3;whiteSpace=wrap;html=1;boundedLbl=1;backgroundOutline=1;size=15;" vertex="1" parent="1">
          <mxGeometry x="750" y="422.5" width="70" height="85" as="geometry" />
        </mxCell>
        <mxCell id="xxQZAiOc9twCJSWwrNgG-24" style="edgeStyle=orthogonalEdgeStyle;rounded=0;orthogonalLoop=1;jettySize=auto;html=1;exitX=0.5;exitY=0.88;exitDx=0;exitDy=0;exitPerimeter=0;orthogonal=0;ignoreEdge=0;noJump=0;enumerate=0;comic=0;movable=1;flowAnimation=1;" edge="1" parent="1" source="xxQZAiOc9twCJSWwrNgG-15">
          <mxGeometry relative="1" as="geometry">
            <mxPoint x="404" y="620" as="targetPoint" />
          </mxGeometry>
        </mxCell>
        <mxCell id="xxQZAiOc9twCJSWwrNgG-27" style="edgeStyle=orthogonalEdgeStyle;rounded=0;orthogonalLoop=1;jettySize=auto;html=1;exitX=1;exitY=0.5;exitDx=0;exitDy=0;exitPerimeter=0;orthogonal=0;ignoreEdge=0;noJump=0;enumerate=0;comic=0;movable=1;flowAnimation=1;" edge="1" parent="1" source="xxQZAiOc9twCJSWwrNgG-15" target="xxQZAiOc9twCJSWwrNgG-12">
          <mxGeometry relative="1" as="geometry" />
        </mxCell>
        <mxCell id="xxQZAiOc9twCJSWwrNgG-28" value="&lt;b&gt;read and write in&lt;/b&gt;" style="edgeLabel;html=1;align=center;verticalAlign=middle;resizable=0;points=[];" vertex="1" connectable="0" parent="xxQZAiOc9twCJSWwrNgG-27">
          <mxGeometry x="-0.0397" relative="1" as="geometry">
            <mxPoint as="offset" />
          </mxGeometry>
        </mxCell>
        <mxCell id="xxQZAiOc9twCJSWwrNgG-15" value="API" style="strokeWidth=2;html=1;shape=mxgraph.flowchart.multi-document;whiteSpace=wrap;" vertex="1" parent="1">
          <mxGeometry x="360" y="435" width="88" height="60" as="geometry" />
        </mxCell>
        <mxCell id="xxQZAiOc9twCJSWwrNgG-17" value="Rabitmq" style="strokeWidth=2;html=1;shape=mxgraph.flowchart.direct_data;whiteSpace=wrap;" vertex="1" parent="1">
          <mxGeometry x="360" y="630" width="100" height="40" as="geometry" />
        </mxCell>
        <mxCell id="xxQZAiOc9twCJSWwrNgG-20" value="" style="verticalLabelPosition=bottom;html=1;verticalAlign=top;align=center;strokeColor=none;fillColor=#00BEF2;shape=mxgraph.azure.queue_generic;pointerEvents=1;" vertex="1" parent="1">
          <mxGeometry x="580" y="637.5" width="80" height="25" as="geometry" />
        </mxCell>
        <mxCell id="xxQZAiOc9twCJSWwrNgG-26" value="Docker" style="rounded=0;whiteSpace=wrap;html=1;fillColor=#dae8fc;strokeColor=#6c8ebf;" vertex="1" parent="1">
          <mxGeometry x="470" y="380" width="70" height="30" as="geometry" />
        </mxCell>
        <mxCell id="xxQZAiOc9twCJSWwrNgG-29" style="edgeStyle=orthogonalEdgeStyle;rounded=0;orthogonalLoop=1;jettySize=auto;html=1;exitX=0.91;exitY=0;exitDx=0;exitDy=0;exitPerimeter=0;entryX=0.5;entryY=0;entryDx=0;entryDy=0;entryPerimeter=0;orthogonal=0;ignoreEdge=0;noJump=0;enumerate=0;comic=0;movable=1;flowAnimation=1;" edge="1" parent="1" source="xxQZAiOc9twCJSWwrNgG-17" target="xxQZAiOc9twCJSWwrNgG-20">
          <mxGeometry relative="1" as="geometry">
            <Array as="points">
              <mxPoint x="451" y="590" />
              <mxPoint x="620" y="590" />
            </Array>
          </mxGeometry>
        </mxCell>
        <mxCell id="xxQZAiOc9twCJSWwrNgG-31" value="&lt;b&gt;send message to&lt;/b&gt;" style="edgeLabel;html=1;align=center;verticalAlign=middle;resizable=0;points=[];" vertex="1" connectable="0" parent="xxQZAiOc9twCJSWwrNgG-29">
          <mxGeometry x="-0.0019" y="-1" relative="1" as="geometry">
            <mxPoint as="offset" />
          </mxGeometry>
        </mxCell>
        <mxCell id="xxQZAiOc9twCJSWwrNgG-32" style="edgeStyle=orthogonalEdgeStyle;rounded=0;orthogonalLoop=1;jettySize=auto;html=1;exitX=1;exitY=0.5;exitDx=0;exitDy=0;entryX=0;entryY=0.717;entryDx=0;entryDy=0;entryPerimeter=0;flowAnimation=1;" edge="1" parent="1" source="xxQZAiOc9twCJSWwrNgG-8" target="xxQZAiOc9twCJSWwrNgG-15">
          <mxGeometry relative="1" as="geometry" />
        </mxCell>
      </root>
    </mxGraphModel>
  </diagram>
</mxfile>
